<svg width="17" height="10" viewBox="0 0 17 10" fill="none" xmlns="http://www.w3.org/2000/svg">
<path d="M0.54506 0.615983C0.77947 0.381644 1.09735 0.25 1.42881 0.25C1.76027 0.25 2.07815 0.381644 2.31256 0.615983L8.50006 6.80348L14.6876 0.615983C14.9233 0.388286 15.2391 0.262292 15.5668 0.26514C15.8946 0.267988 16.2081 0.39945 16.4398 0.63121C16.6716 0.86297 16.8031 1.17649 16.8059 1.50423C16.8088 1.83198 16.6828 2.14773 16.4551 2.38348L9.38381 9.45473C9.1494 9.68907 8.83152 9.82072 8.50006 9.82072C8.1686 9.82072 7.85072 9.68907 7.61631 9.45473L0.54506 2.38348C0.310721 2.14907 0.179077 1.83119 0.179077 1.49973C0.179077 1.16828 0.310721 0.850393 0.54506 0.615983Z" fill="#103F80"/>
</svg>
