<svg width="209" height="80" viewBox="0 0 209 80" fill="none" xmlns="http://www.w3.org/2000/svg">
<circle cx="2.35293" cy="2.35293" r="2.35293" fill="#134B99" fill-opacity="0.5"/>
<circle cx="2.35293" cy="11.7645" r="2.35293" fill="#134B99" fill-opacity="0.5"/>
<circle cx="2.35293" cy="21.1767" r="2.35293" fill="#134B99" fill-opacity="0.5"/>
<circle cx="2.35293" cy="30.5883" r="2.35293" fill="#134B99" fill-opacity="0.5"/>
<circle cx="2.35293" cy="39.9999" r="2.35293" fill="#134B99" fill-opacity="0.5"/>
<circle cx="2.35293" cy="49.4115" r="2.35293" fill="#134B99" fill-opacity="0.5"/>
<circle cx="2.35293" cy="58.8236" r="2.35293" fill="#134B99" fill-opacity="0.5"/>
<circle cx="2.35293" cy="68.2353" r="2.35293" fill="#134B99" fill-opacity="0.5"/>
<circle cx="2.35293" cy="77.6469" r="2.35293" fill="#134B99" fill-opacity="0.5"/>
<circle cx="10.9176" cy="2.35293" r="2.35293" fill="#134B99" fill-opacity="0.5"/>
<circle cx="10.9176" cy="11.7645" r="2.35293" fill="#134B99" fill-opacity="0.5"/>
<circle cx="10.9176" cy="21.1767" r="2.35293" fill="#134B99" fill-opacity="0.5"/>
<circle cx="10.9176" cy="30.5883" r="2.35293" fill="#134B99" fill-opacity="0.5"/>
<circle cx="10.9176" cy="39.9999" r="2.35293" fill="#134B99" fill-opacity="0.5"/>
<circle cx="10.9176" cy="49.4115" r="2.35293" fill="#134B99" fill-opacity="0.5"/>
<circle cx="10.9176" cy="58.8236" r="2.35293" fill="#134B99" fill-opacity="0.5"/>
<circle cx="10.9176" cy="68.2353" r="2.35293" fill="#134B99" fill-opacity="0.5"/>
<circle cx="10.9176" cy="77.6469" r="2.35293" fill="#134B99" fill-opacity="0.5"/>
<circle cx="19.4823" cy="2.35293" r="2.35293" fill="#134B99" fill-opacity="0.5"/>
<circle cx="19.4823" cy="11.7645" r="2.35293" fill="#134B99" fill-opacity="0.5"/>
<circle cx="19.4823" cy="21.1767" r="2.35293" fill="#134B99" fill-opacity="0.5"/>
<circle cx="19.4823" cy="30.5883" r="2.35293" fill="#134B99" fill-opacity="0.5"/>
<circle cx="19.4823" cy="39.9999" r="2.35293" fill="#134B99" fill-opacity="0.5"/>
<circle cx="19.4823" cy="49.4115" r="2.35293" fill="#134B99" fill-opacity="0.5"/>
<circle cx="19.4823" cy="58.8236" r="2.35293" fill="#134B99" fill-opacity="0.5"/>
<circle cx="19.4823" cy="68.2353" r="2.35293" fill="#134B99" fill-opacity="0.5"/>
<circle cx="19.4823" cy="77.6469" r="2.35293" fill="#134B99" fill-opacity="0.5"/>
<circle cx="28.0468" cy="2.35293" r="2.35293" fill="#134B99" fill-opacity="0.5"/>
<circle cx="28.0468" cy="11.7645" r="2.35293" fill="#134B99" fill-opacity="0.5"/>
<circle cx="28.0468" cy="21.1767" r="2.35293" fill="#134B99" fill-opacity="0.5"/>
<circle cx="28.0468" cy="30.5883" r="2.35293" fill="#134B99" fill-opacity="0.5"/>
<circle cx="28.0468" cy="39.9999" r="2.35293" fill="#134B99" fill-opacity="0.5"/>
<circle cx="28.0468" cy="49.4115" r="2.35293" fill="#134B99" fill-opacity="0.5"/>
<circle cx="28.0468" cy="58.8236" r="2.35293" fill="#134B99" fill-opacity="0.5"/>
<circle cx="28.0468" cy="68.2353" r="2.35293" fill="#134B99" fill-opacity="0.5"/>
<circle cx="28.0468" cy="77.6469" r="2.35293" fill="#134B99" fill-opacity="0.5"/>
<circle cx="36.6117" cy="2.35293" r="2.35293" fill="#134B99" fill-opacity="0.5"/>
<circle cx="36.6117" cy="11.7645" r="2.35293" fill="#134B99" fill-opacity="0.5"/>
<circle cx="36.6117" cy="21.1767" r="2.35293" fill="#134B99" fill-opacity="0.5"/>
<circle cx="36.6117" cy="30.5883" r="2.35293" fill="#134B99" fill-opacity="0.5"/>
<circle cx="36.6117" cy="39.9999" r="2.35293" fill="#134B99" fill-opacity="0.5"/>
<circle cx="36.6117" cy="49.4115" r="2.35293" fill="#134B99" fill-opacity="0.5"/>
<circle cx="36.6117" cy="58.8236" r="2.35293" fill="#134B99" fill-opacity="0.5"/>
<circle cx="36.6117" cy="68.2353" r="2.35293" fill="#134B99" fill-opacity="0.5"/>
<circle cx="36.6117" cy="77.6469" r="2.35293" fill="#134B99" fill-opacity="0.5"/>
<circle cx="45.1764" cy="2.35293" r="2.35293" fill="#134B99" fill-opacity="0.5"/>
<circle cx="45.1764" cy="11.7645" r="2.35293" fill="#134B99" fill-opacity="0.5"/>
<circle cx="45.1764" cy="21.1767" r="2.35293" fill="#134B99" fill-opacity="0.5"/>
<circle cx="45.1764" cy="30.5883" r="2.35293" fill="#134B99" fill-opacity="0.5"/>
<circle cx="45.1764" cy="39.9999" r="2.35293" fill="#134B99" fill-opacity="0.5"/>
<circle cx="45.1764" cy="49.4115" r="2.35293" fill="#134B99" fill-opacity="0.5"/>
<circle cx="45.1764" cy="58.8236" r="2.35293" fill="#134B99" fill-opacity="0.5"/>
<circle cx="45.1764" cy="68.2353" r="2.35293" fill="#134B99" fill-opacity="0.5"/>
<circle cx="45.1764" cy="77.6469" r="2.35293" fill="#134B99" fill-opacity="0.5"/>
<circle cx="53.7411" cy="2.35293" r="2.35293" fill="#134B99" fill-opacity="0.5"/>
<circle cx="53.7411" cy="11.7645" r="2.35293" fill="#134B99" fill-opacity="0.5"/>
<circle cx="53.7411" cy="21.1767" r="2.35293" fill="#134B99" fill-opacity="0.5"/>
<circle cx="53.7411" cy="30.5883" r="2.35293" fill="#134B99" fill-opacity="0.5"/>
<circle cx="53.7411" cy="39.9999" r="2.35293" fill="#134B99" fill-opacity="0.5"/>
<circle cx="53.7411" cy="49.4115" r="2.35293" fill="#134B99" fill-opacity="0.5"/>
<circle cx="53.7411" cy="58.8236" r="2.35293" fill="#134B99" fill-opacity="0.5"/>
<circle cx="53.7411" cy="68.2353" r="2.35293" fill="#134B99" fill-opacity="0.5"/>
<circle cx="53.7411" cy="77.6469" r="2.35293" fill="#134B99" fill-opacity="0.5"/>
<circle cx="62.3053" cy="2.35293" r="2.35293" fill="#134B99" fill-opacity="0.5"/>
<circle cx="62.3053" cy="11.7645" r="2.35293" fill="#134B99" fill-opacity="0.5"/>
<circle cx="62.3053" cy="21.1767" r="2.35293" fill="#134B99" fill-opacity="0.5"/>
<circle cx="62.3053" cy="30.5883" r="2.35293" fill="#134B99" fill-opacity="0.5"/>
<circle cx="62.3053" cy="39.9999" r="2.35293" fill="#134B99" fill-opacity="0.5"/>
<circle cx="62.3053" cy="49.4115" r="2.35293" fill="#134B99" fill-opacity="0.5"/>
<circle cx="62.3053" cy="58.8236" r="2.35293" fill="#134B99" fill-opacity="0.5"/>
<circle cx="62.3053" cy="68.2353" r="2.35293" fill="#134B99" fill-opacity="0.5"/>
<circle cx="62.3053" cy="77.6469" r="2.35293" fill="#134B99" fill-opacity="0.5"/>
<circle cx="70.8703" cy="2.35293" r="2.35293" fill="#134B99" fill-opacity="0.5"/>
<circle cx="70.8703" cy="11.7645" r="2.35293" fill="#134B99" fill-opacity="0.5"/>
<circle cx="70.8703" cy="21.1767" r="2.35293" fill="#134B99" fill-opacity="0.5"/>
<circle cx="70.8703" cy="30.5883" r="2.35293" fill="#134B99" fill-opacity="0.5"/>
<circle cx="70.8703" cy="39.9999" r="2.35293" fill="#134B99" fill-opacity="0.5"/>
<circle cx="70.8703" cy="49.4115" r="2.35293" fill="#134B99" fill-opacity="0.5"/>
<circle cx="70.8703" cy="58.8236" r="2.35293" fill="#134B99" fill-opacity="0.5"/>
<circle cx="70.8703" cy="68.2353" r="2.35293" fill="#134B99" fill-opacity="0.5"/>
<circle cx="70.8703" cy="77.6469" r="2.35293" fill="#134B99" fill-opacity="0.5"/>
<circle cx="79.4347" cy="2.35293" r="2.35293" fill="#134B99" fill-opacity="0.5"/>
<circle cx="79.4347" cy="11.7645" r="2.35293" fill="#134B99" fill-opacity="0.5"/>
<circle cx="79.4347" cy="21.1767" r="2.35293" fill="#134B99" fill-opacity="0.5"/>
<circle cx="79.4347" cy="30.5883" r="2.35293" fill="#134B99" fill-opacity="0.5"/>
<circle cx="79.4347" cy="39.9999" r="2.35293" fill="#134B99" fill-opacity="0.5"/>
<circle cx="79.4347" cy="49.4115" r="2.35293" fill="#134B99" fill-opacity="0.5"/>
<circle cx="79.4347" cy="58.8236" r="2.35293" fill="#134B99" fill-opacity="0.5"/>
<circle cx="79.4347" cy="68.2353" r="2.35293" fill="#134B99" fill-opacity="0.5"/>
<circle cx="79.4347" cy="77.6469" r="2.35293" fill="#134B99" fill-opacity="0.5"/>
<circle cx="87.9994" cy="2.35293" r="2.35293" fill="#134B99" fill-opacity="0.5"/>
<circle cx="87.9994" cy="11.7645" r="2.35293" fill="#134B99" fill-opacity="0.5"/>
<circle cx="87.9994" cy="21.1767" r="2.35293" fill="#134B99" fill-opacity="0.5"/>
<circle cx="87.9994" cy="30.5883" r="2.35293" fill="#134B99" fill-opacity="0.5"/>
<circle cx="87.9994" cy="39.9999" r="2.35293" fill="#134B99" fill-opacity="0.5"/>
<circle cx="87.9994" cy="49.4115" r="2.35293" fill="#134B99" fill-opacity="0.5"/>
<circle cx="87.9994" cy="58.8236" r="2.35293" fill="#134B99" fill-opacity="0.5"/>
<circle cx="87.9994" cy="68.2353" r="2.35293" fill="#134B99" fill-opacity="0.5"/>
<circle cx="87.9994" cy="77.6469" r="2.35293" fill="#134B99" fill-opacity="0.5"/>
<circle cx="96.4706" cy="2.35293" r="2.35293" fill="#134B99" fill-opacity="0.5"/>
<circle cx="96.4706" cy="11.7645" r="2.35293" fill="#134B99" fill-opacity="0.5"/>
<circle cx="96.4706" cy="21.1767" r="2.35293" fill="#134B99" fill-opacity="0.5"/>
<circle cx="96.4706" cy="30.5883" r="2.35293" fill="#134B99" fill-opacity="0.5"/>
<circle cx="96.4706" cy="39.9999" r="2.35293" fill="#134B99" fill-opacity="0.5"/>
<circle cx="96.4706" cy="49.4115" r="2.35293" fill="#134B99" fill-opacity="0.5"/>
<circle cx="96.4706" cy="58.8236" r="2.35293" fill="#134B99" fill-opacity="0.5"/>
<circle cx="96.4706" cy="68.2353" r="2.35293" fill="#134B99" fill-opacity="0.5"/>
<circle cx="96.4706" cy="77.6469" r="2.35293" fill="#134B99" fill-opacity="0.5"/>
<circle cx="104.942" cy="2.35293" r="2.35293" fill="#134B99" fill-opacity="0.5"/>
<circle cx="104.942" cy="11.7645" r="2.35293" fill="#134B99" fill-opacity="0.5"/>
<circle cx="104.942" cy="21.1767" r="2.35293" fill="#134B99" fill-opacity="0.5"/>
<circle cx="104.942" cy="30.5883" r="2.35293" fill="#134B99" fill-opacity="0.5"/>
<circle cx="104.942" cy="39.9999" r="2.35293" fill="#134B99" fill-opacity="0.5"/>
<circle cx="104.942" cy="49.4115" r="2.35293" fill="#134B99" fill-opacity="0.5"/>
<circle cx="104.942" cy="58.8236" r="2.35293" fill="#134B99" fill-opacity="0.5"/>
<circle cx="104.942" cy="68.2353" r="2.35293" fill="#134B99" fill-opacity="0.5"/>
<circle cx="104.942" cy="77.6469" r="2.35293" fill="#134B99" fill-opacity="0.5"/>
<circle cx="113.413" cy="2.35293" r="2.35293" fill="#134B99" fill-opacity="0.5"/>
<circle cx="113.413" cy="11.7645" r="2.35293" fill="#134B99" fill-opacity="0.5"/>
<circle cx="113.413" cy="21.1767" r="2.35293" fill="#134B99" fill-opacity="0.5"/>
<circle cx="113.413" cy="30.5883" r="2.35293" fill="#134B99" fill-opacity="0.5"/>
<circle cx="113.413" cy="39.9999" r="2.35293" fill="#134B99" fill-opacity="0.5"/>
<circle cx="113.413" cy="49.4115" r="2.35293" fill="#134B99" fill-opacity="0.5"/>
<circle cx="113.413" cy="58.8236" r="2.35293" fill="#134B99" fill-opacity="0.5"/>
<circle cx="113.413" cy="68.2353" r="2.35293" fill="#134B99" fill-opacity="0.5"/>
<circle cx="113.413" cy="77.6469" r="2.35293" fill="#134B99" fill-opacity="0.5"/>
<circle cx="121.884" cy="2.35293" r="2.35293" fill="#134B99" fill-opacity="0.5"/>
<circle cx="121.884" cy="11.7645" r="2.35293" fill="#134B99" fill-opacity="0.5"/>
<circle cx="121.884" cy="21.1767" r="2.35293" fill="#134B99" fill-opacity="0.5"/>
<circle cx="121.884" cy="30.5883" r="2.35293" fill="#134B99" fill-opacity="0.5"/>
<circle cx="121.884" cy="39.9999" r="2.35293" fill="#134B99" fill-opacity="0.5"/>
<circle cx="121.884" cy="49.4115" r="2.35293" fill="#134B99" fill-opacity="0.5"/>
<circle cx="121.884" cy="58.8236" r="2.35293" fill="#134B99" fill-opacity="0.5"/>
<circle cx="121.884" cy="68.2353" r="2.35293" fill="#134B99" fill-opacity="0.5"/>
<circle cx="121.884" cy="77.6469" r="2.35293" fill="#134B99" fill-opacity="0.5"/>
<circle cx="130.355" cy="2.35293" r="2.35293" fill="#134B99" fill-opacity="0.5"/>
<circle cx="130.355" cy="11.7645" r="2.35293" fill="#134B99" fill-opacity="0.5"/>
<circle cx="130.355" cy="21.1767" r="2.35293" fill="#134B99" fill-opacity="0.5"/>
<circle cx="130.355" cy="30.5883" r="2.35293" fill="#134B99" fill-opacity="0.5"/>
<circle cx="130.355" cy="39.9999" r="2.35293" fill="#134B99" fill-opacity="0.5"/>
<circle cx="130.355" cy="49.4115" r="2.35293" fill="#134B99" fill-opacity="0.5"/>
<circle cx="130.355" cy="58.8236" r="2.35293" fill="#134B99" fill-opacity="0.5"/>
<circle cx="130.355" cy="68.2353" r="2.35293" fill="#134B99" fill-opacity="0.5"/>
<circle cx="130.355" cy="77.6469" r="2.35293" fill="#134B99" fill-opacity="0.5"/>
<circle cx="138.826" cy="2.35293" r="2.35293" fill="#134B99" fill-opacity="0.5"/>
<circle cx="138.826" cy="11.7645" r="2.35293" fill="#134B99" fill-opacity="0.5"/>
<circle cx="138.826" cy="21.1767" r="2.35293" fill="#134B99" fill-opacity="0.5"/>
<circle cx="138.826" cy="30.5883" r="2.35293" fill="#134B99" fill-opacity="0.5"/>
<circle cx="138.826" cy="39.9999" r="2.35293" fill="#134B99" fill-opacity="0.5"/>
<circle cx="138.826" cy="49.4115" r="2.35293" fill="#134B99" fill-opacity="0.5"/>
<circle cx="138.826" cy="58.8236" r="2.35293" fill="#134B99" fill-opacity="0.5"/>
<circle cx="138.826" cy="68.2353" r="2.35293" fill="#134B99" fill-opacity="0.5"/>
<circle cx="138.826" cy="77.6469" r="2.35293" fill="#134B99" fill-opacity="0.5"/>
<circle cx="147.297" cy="2.35293" r="2.35293" fill="#134B99" fill-opacity="0.5"/>
<circle cx="147.297" cy="11.7645" r="2.35293" fill="#134B99" fill-opacity="0.5"/>
<circle cx="147.297" cy="21.1767" r="2.35293" fill="#134B99" fill-opacity="0.5"/>
<circle cx="147.297" cy="30.5883" r="2.35293" fill="#134B99" fill-opacity="0.5"/>
<circle cx="147.297" cy="39.9999" r="2.35293" fill="#134B99" fill-opacity="0.5"/>
<circle cx="147.297" cy="49.4115" r="2.35293" fill="#134B99" fill-opacity="0.5"/>
<circle cx="147.297" cy="58.8236" r="2.35293" fill="#134B99" fill-opacity="0.5"/>
<circle cx="147.297" cy="68.2353" r="2.35293" fill="#134B99" fill-opacity="0.5"/>
<circle cx="147.297" cy="77.6469" r="2.35293" fill="#134B99" fill-opacity="0.5"/>
<circle cx="155.768" cy="2.35293" r="2.35293" fill="#134B99" fill-opacity="0.5"/>
<circle cx="155.768" cy="11.7645" r="2.35293" fill="#134B99" fill-opacity="0.5"/>
<circle cx="155.768" cy="21.1767" r="2.35293" fill="#134B99" fill-opacity="0.5"/>
<circle cx="155.768" cy="30.5883" r="2.35293" fill="#134B99" fill-opacity="0.5"/>
<circle cx="155.768" cy="39.9999" r="2.35293" fill="#134B99" fill-opacity="0.5"/>
<circle cx="155.768" cy="49.4115" r="2.35293" fill="#134B99" fill-opacity="0.5"/>
<circle cx="155.768" cy="58.8236" r="2.35293" fill="#134B99" fill-opacity="0.5"/>
<circle cx="155.768" cy="68.2353" r="2.35293" fill="#134B99" fill-opacity="0.5"/>
<circle cx="155.768" cy="77.6469" r="2.35293" fill="#134B99" fill-opacity="0.5"/>
<circle cx="164.24" cy="2.35293" r="2.35293" fill="#134B99" fill-opacity="0.5"/>
<circle cx="164.24" cy="11.7645" r="2.35293" fill="#134B99" fill-opacity="0.5"/>
<circle cx="164.24" cy="21.1767" r="2.35293" fill="#134B99" fill-opacity="0.5"/>
<circle cx="164.24" cy="30.5883" r="2.35293" fill="#134B99" fill-opacity="0.5"/>
<circle cx="164.24" cy="39.9999" r="2.35293" fill="#134B99" fill-opacity="0.5"/>
<circle cx="164.24" cy="49.4115" r="2.35293" fill="#134B99" fill-opacity="0.5"/>
<circle cx="164.24" cy="58.8236" r="2.35293" fill="#134B99" fill-opacity="0.5"/>
<circle cx="164.24" cy="68.2353" r="2.35293" fill="#134B99" fill-opacity="0.5"/>
<circle cx="164.24" cy="77.6469" r="2.35293" fill="#134B99" fill-opacity="0.5"/>
<circle cx="172.711" cy="2.35293" r="2.35293" fill="#134B99" fill-opacity="0.5"/>
<circle cx="172.711" cy="11.7645" r="2.35293" fill="#134B99" fill-opacity="0.5"/>
<circle cx="172.711" cy="21.1767" r="2.35293" fill="#134B99" fill-opacity="0.5"/>
<circle cx="172.711" cy="30.5883" r="2.35293" fill="#134B99" fill-opacity="0.5"/>
<circle cx="172.711" cy="39.9999" r="2.35293" fill="#134B99" fill-opacity="0.5"/>
<circle cx="172.711" cy="49.4115" r="2.35293" fill="#134B99" fill-opacity="0.5"/>
<circle cx="172.711" cy="58.8236" r="2.35293" fill="#134B99" fill-opacity="0.5"/>
<circle cx="172.711" cy="68.2353" r="2.35293" fill="#134B99" fill-opacity="0.5"/>
<circle cx="172.711" cy="77.6469" r="2.35293" fill="#134B99" fill-opacity="0.5"/>
<circle cx="181.182" cy="2.35293" r="2.35293" fill="#134B99" fill-opacity="0.5"/>
<circle cx="181.182" cy="11.7645" r="2.35293" fill="#134B99" fill-opacity="0.5"/>
<circle cx="181.182" cy="21.1767" r="2.35293" fill="#134B99" fill-opacity="0.5"/>
<circle cx="181.182" cy="30.5883" r="2.35293" fill="#134B99" fill-opacity="0.5"/>
<circle cx="181.182" cy="39.9999" r="2.35293" fill="#134B99" fill-opacity="0.5"/>
<circle cx="181.182" cy="49.4115" r="2.35293" fill="#134B99" fill-opacity="0.5"/>
<circle cx="181.182" cy="58.8236" r="2.35293" fill="#134B99" fill-opacity="0.5"/>
<circle cx="181.182" cy="68.2353" r="2.35293" fill="#134B99" fill-opacity="0.5"/>
<circle cx="181.182" cy="77.6469" r="2.35293" fill="#134B99" fill-opacity="0.5"/>
<circle cx="189.653" cy="2.35293" r="2.35293" fill="#134B99" fill-opacity="0.5"/>
<circle cx="189.653" cy="11.7645" r="2.35293" fill="#134B99" fill-opacity="0.5"/>
<circle cx="189.653" cy="21.1767" r="2.35293" fill="#134B99" fill-opacity="0.5"/>
<circle cx="189.653" cy="30.5883" r="2.35293" fill="#134B99" fill-opacity="0.5"/>
<circle cx="189.653" cy="39.9999" r="2.35293" fill="#134B99" fill-opacity="0.5"/>
<circle cx="189.653" cy="49.4115" r="2.35293" fill="#134B99" fill-opacity="0.5"/>
<circle cx="189.653" cy="58.8236" r="2.35293" fill="#134B99" fill-opacity="0.5"/>
<circle cx="189.653" cy="68.2353" r="2.35293" fill="#134B99" fill-opacity="0.5"/>
<circle cx="189.653" cy="77.6469" r="2.35293" fill="#134B99" fill-opacity="0.5"/>
<circle cx="198.124" cy="2.35293" r="2.35293" fill="#134B99" fill-opacity="0.5"/>
<circle cx="198.124" cy="11.7645" r="2.35293" fill="#134B99" fill-opacity="0.5"/>
<circle cx="198.124" cy="21.1767" r="2.35293" fill="#134B99" fill-opacity="0.5"/>
<circle cx="198.124" cy="30.5883" r="2.35293" fill="#134B99" fill-opacity="0.5"/>
<circle cx="198.124" cy="39.9999" r="2.35293" fill="#134B99" fill-opacity="0.5"/>
<circle cx="198.124" cy="49.4115" r="2.35293" fill="#134B99" fill-opacity="0.5"/>
<circle cx="198.124" cy="58.8236" r="2.35293" fill="#134B99" fill-opacity="0.5"/>
<circle cx="198.124" cy="68.2353" r="2.35293" fill="#134B99" fill-opacity="0.5"/>
<circle cx="198.124" cy="77.6469" r="2.35293" fill="#134B99" fill-opacity="0.5"/>
<circle cx="206.595" cy="2.35293" r="2.35293" fill="#134B99" fill-opacity="0.5"/>
<circle cx="206.595" cy="11.7645" r="2.35293" fill="#134B99" fill-opacity="0.5"/>
<circle cx="206.595" cy="21.1767" r="2.35293" fill="#134B99" fill-opacity="0.5"/>
<circle cx="206.595" cy="30.5883" r="2.35293" fill="#134B99" fill-opacity="0.5"/>
<circle cx="206.595" cy="39.9999" r="2.35293" fill="#134B99" fill-opacity="0.5"/>
<circle cx="206.595" cy="49.4115" r="2.35293" fill="#134B99" fill-opacity="0.5"/>
<circle cx="206.595" cy="58.8236" r="2.35293" fill="#134B99" fill-opacity="0.5"/>
<circle cx="206.595" cy="68.2353" r="2.35293" fill="#134B99" fill-opacity="0.5"/>
<circle cx="206.595" cy="77.6469" r="2.35293" fill="#134B99" fill-opacity="0.5"/>
</svg>
