<svg width="20" height="20" viewBox="0 0 20 20" fill="none" xmlns="http://www.w3.org/2000/svg">
<path d="M9.99999 6.87531C8.27968 6.87531 6.87577 8.27921 6.87577 9.99953C6.87577 11.7198 8.27968 13.1237 9.99999 13.1237C11.7203 13.1237 13.1242 11.7198 13.1242 9.99953C13.1242 8.27921 11.7203 6.87531 9.99999 6.87531ZM19.3703 9.99953C19.3703 8.70578 19.382 7.42374 19.3094 6.13234C19.2367 4.63234 18.8945 3.30109 17.7976 2.20421C16.6984 1.10499 15.3695 0.76515 13.8695 0.692494C12.5758 0.619838 11.2937 0.631557 10.0023 0.631557C8.70858 0.631557 7.42655 0.619838 6.13515 0.692494C4.63515 0.76515 3.3039 1.10734 2.20702 2.20421C1.1078 3.30343 0.767958 4.63234 0.695302 6.13234C0.622645 7.42609 0.634364 8.70812 0.634364 9.99953C0.634364 11.2909 0.622645 12.5753 0.695302 13.8667C0.767958 15.3667 1.11015 16.698 2.20702 17.7948C3.30624 18.8941 4.63515 19.2339 6.13515 19.3066C7.4289 19.3792 8.71093 19.3675 10.0023 19.3675C11.2961 19.3675 12.5781 19.3792 13.8695 19.3066C15.3695 19.2339 16.7008 18.8917 17.7976 17.7948C18.8969 16.6956 19.2367 15.3667 19.3094 13.8667C19.3844 12.5753 19.3703 11.2933 19.3703 9.99953ZM9.99999 14.8066C7.33983 14.8066 5.19296 12.6597 5.19296 9.99953C5.19296 7.33937 7.33983 5.19249 9.99999 5.19249C12.6601 5.19249 14.807 7.33937 14.807 9.99953C14.807 12.6597 12.6601 14.8066 9.99999 14.8066ZM15.0039 6.11827C14.3828 6.11827 13.8812 5.61671 13.8812 4.99562C13.8812 4.37453 14.3828 3.87296 15.0039 3.87296C15.625 3.87296 16.1266 4.37453 16.1266 4.99562C16.1267 5.1431 16.0978 5.28917 16.0415 5.42546C15.9851 5.56175 15.9024 5.68558 15.7981 5.78987C15.6939 5.89415 15.57 5.97684 15.4337 6.0332C15.2974 6.08955 15.1514 6.11846 15.0039 6.11827Z" fill="#D0DBEB"/>
</svg>
