<svg width="24" height="25" viewBox="0 0 24 25" fill="none" xmlns="http://www.w3.org/2000/svg">
<path d="M12 0.980469C5.63758 0.980469 0.47998 6.13807 0.47998 12.5005C0.47998 18.8629 5.63758 24.0205 12 24.0205C18.3624 24.0205 23.52 18.8629 23.52 12.5005C23.52 6.13807 18.3624 0.980469 12 0.980469ZM9.17998 17.2753H6.84718V9.76807H9.17998V17.2753ZM7.99918 8.84647C7.26238 8.84647 6.78598 8.32447 6.78598 7.67887C6.78598 7.02007 7.27678 6.51367 8.02918 6.51367C8.78158 6.51367 9.24238 7.02007 9.25678 7.67887C9.25678 8.32447 8.78158 8.84647 7.99918 8.84647ZM17.7 17.2753H15.3672V13.1149C15.3672 12.1465 15.0288 11.4889 14.1852 11.4889C13.5408 11.4889 13.158 11.9341 12.9888 12.3625C12.9264 12.5149 12.9108 12.7309 12.9108 12.9457V17.2741H10.5768V12.1621C10.5768 11.2249 10.5468 10.4413 10.5156 9.76687H12.5424L12.6492 10.8097H12.696C13.0032 10.3201 13.7556 9.59767 15.0144 9.59767C16.5492 9.59767 17.7 10.6261 17.7 12.8365V17.2753Z" fill="#D0DBEB"/>
</svg>
