<svg width="88" height="86" viewBox="0 0 88 86" fill="none" xmlns="http://www.w3.org/2000/svg">
<path fill-rule="evenodd" clip-rule="evenodd" d="M85.1503 4.30093C83.9627 4.30093 82.9999 3.33813 82.9999 2.15046C82.9999 0.962795 83.9627 -1.45914e-07 85.1503 -9.39997e-08C86.338 -4.20851e-08 87.3008 0.962795 87.3008 2.15046C87.3008 3.33813 86.338 4.30093 85.1503 4.30093ZM68.8495 4.30092C67.6619 4.30092 66.6991 3.33813 66.6991 2.15046C66.6991 0.962794 67.6619 -8.58444e-07 68.8495 -8.0653e-07C70.0372 -7.54615e-07 71 0.962794 71 2.15046C71 3.33813 70.0372 4.30092 68.8495 4.30092ZM49.9999 2.15046C49.9999 3.33813 50.9627 4.30092 52.1503 4.30092C53.338 4.30092 54.3008 3.33813 54.3008 2.15046C54.3008 0.962794 53.338 -1.48456e-06 52.1503 -1.53647e-06C50.9627 -1.58839e-06 49.9999 0.962793 49.9999 2.15046ZM85.1503 20.6018C83.9626 20.6018 82.9999 19.639 82.9999 18.4514C82.9999 17.2637 83.9626 16.3009 85.1503 16.3009C86.338 16.3009 87.3008 17.2637 87.3008 18.4514C87.3008 19.639 86.338 20.6018 85.1503 20.6018ZM66.6991 18.4514C66.6991 19.639 67.6619 20.6018 68.8495 20.6018C70.0372 20.6018 71 19.639 71 18.4514C71 17.2637 70.0372 16.3009 68.8495 16.3009C67.6619 16.3009 66.6991 17.2637 66.6991 18.4514ZM52.1503 20.6018C50.9626 20.6018 49.9999 19.639 49.9999 18.4514C49.9999 17.2637 50.9626 16.3009 52.1503 16.3009C53.338 16.3009 54.3008 17.2637 54.3008 18.4514C54.3008 19.639 53.338 20.6018 52.1503 20.6018ZM82.9999 34.7523C82.9999 35.9399 83.9626 36.9027 85.1503 36.9027C86.338 36.9027 87.3008 35.9399 87.3008 34.7523C87.3008 33.5646 86.338 32.6018 85.1503 32.6018C83.9626 32.6018 82.9999 33.5646 82.9999 34.7523ZM68.8495 36.9027C67.6619 36.9027 66.6991 35.9399 66.6991 34.7523C66.6991 33.5646 67.6619 32.6018 68.8495 32.6018C70.0372 32.6018 71 33.5646 71 34.7523C71 35.9399 70.0372 36.9027 68.8495 36.9027ZM49.9999 34.7523C49.9999 35.9399 50.9626 36.9027 52.1503 36.9027C53.338 36.9027 54.3008 35.9399 54.3008 34.7523C54.3008 33.5646 53.338 32.6018 52.1503 32.6018C50.9626 32.6018 49.9999 33.5646 49.9999 34.7523ZM85.1503 53.2037C83.9626 53.2037 82.9999 52.2409 82.9999 51.0532C82.9999 49.8656 83.9626 48.9028 85.1503 48.9028C86.338 48.9028 87.3008 49.8656 87.3008 51.0532C87.3008 52.2409 86.338 53.2037 85.1503 53.2037ZM32.9999 51.1505C32.9999 52.3381 33.9626 53.3009 35.1503 53.3009C36.338 53.3009 37.3008 52.3381 37.3008 51.1505C37.3008 49.9628 36.338 49 35.1503 49C33.9626 49 32.9999 49.9628 32.9999 51.1505ZM68.8495 53.2037C67.6619 53.2037 66.6991 52.2409 66.6991 51.0532C66.6991 49.8656 67.6619 48.9028 68.8495 48.9028C70.0372 48.9028 71 49.8656 71 51.0532C71 52.2409 70.0372 53.2037 68.8495 53.2037ZM16.6991 51.1505C16.6991 52.3381 17.6619 53.3009 18.8495 53.3009C20.0372 53.3009 21 52.3381 21 51.1505C21 49.9628 20.0372 49 18.8495 49C17.6619 49 16.6991 49.9628 16.6991 51.1505ZM52.1503 53.2037C50.9626 53.2037 49.9999 52.2409 49.9999 51.0532C49.9999 49.8656 50.9626 48.9028 52.1503 48.9028C53.338 48.9028 54.3008 49.8656 54.3008 51.0532C54.3008 52.2409 53.338 53.2037 52.1503 53.2037ZM-0.000147194 51.1505C-0.000147246 52.3381 0.962652 53.3009 2.15032 53.3009C3.33799 53.3009 4.30078 52.3381 4.30078 51.1505C4.30078 49.9628 3.33799 49 2.15032 49C0.962652 49 -0.000147142 49.9628 -0.000147194 51.1505ZM85.1503 69.5047C83.9626 69.5047 82.9999 68.5419 82.9999 67.3542C82.9999 66.1665 83.9626 65.2037 85.1503 65.2037C86.338 65.2037 87.3008 66.1665 87.3008 67.3542C87.3008 68.5419 86.338 69.5047 85.1503 69.5047ZM32.9999 67.4514C32.9999 68.6391 33.9626 69.6019 35.1503 69.6019C36.338 69.6019 37.3008 68.6391 37.3008 67.4514C37.3008 66.2638 36.338 65.301 35.1503 65.301C33.9626 65.301 32.9999 66.2638 32.9999 67.4514ZM68.8495 69.5047C67.6619 69.5047 66.6991 68.5419 66.6991 67.3542C66.6991 66.1665 67.6619 65.2037 68.8495 65.2037C70.0372 65.2037 71 66.1665 71 67.3542C71 68.5419 70.0372 69.5047 68.8495 69.5047ZM16.6991 67.4514C16.6991 68.6391 17.6619 69.6019 18.8495 69.6019C20.0372 69.6019 21 68.6391 21 67.4514C21 66.2638 20.0372 65.301 18.8495 65.301C17.6619 65.301 16.6991 66.2638 16.6991 67.4514ZM52.1503 69.5047C50.9626 69.5047 49.9999 68.5419 49.9999 67.3542C49.9999 66.1665 50.9626 65.2037 52.1503 65.2037C53.338 65.2037 54.3008 66.1665 54.3008 67.3542C54.3008 68.5419 53.338 69.5047 52.1503 69.5047ZM-0.000147907 67.4514C-0.000147959 68.6391 0.962651 69.6019 2.15032 69.6019C3.33799 69.6019 4.30078 68.6391 4.30078 67.4514C4.30078 66.2638 3.33799 65.301 2.15032 65.301C0.962651 65.301 -0.000147855 66.2638 -0.000147907 67.4514ZM85.1503 85.8056C83.9626 85.8056 82.9999 84.8428 82.9999 83.6551C82.9999 82.4674 83.9626 81.5046 85.1503 81.5046C86.338 81.5046 87.3008 82.4674 87.3008 83.6551C87.3008 84.8428 86.338 85.8056 85.1503 85.8056ZM32.9999 83.7523C32.9999 84.94 33.9626 85.9028 35.1503 85.9028C36.338 85.9028 37.3008 84.94 37.3008 83.7523C37.3008 82.5647 36.338 81.6019 35.1503 81.6019C33.9626 81.6019 32.9999 82.5647 32.9999 83.7523ZM68.8495 85.8056C67.6619 85.8056 66.6991 84.8428 66.6991 83.6551C66.6991 82.4674 67.6619 81.5046 68.8495 81.5046C70.0372 81.5046 71 82.4674 71 83.6551C71 84.8428 70.0372 85.8056 68.8495 85.8056ZM16.6991 83.7523C16.6991 84.94 17.6619 85.9028 18.8495 85.9028C20.0372 85.9028 21 84.94 21 83.7523C21 82.5647 20.0372 81.6019 18.8495 81.6019C17.6619 81.6019 16.6991 82.5647 16.6991 83.7523ZM52.1503 85.8056C50.9626 85.8056 49.9999 84.8428 49.9999 83.6551C49.9999 82.4674 50.9626 81.5046 52.1503 81.5046C53.338 81.5046 54.3008 82.4674 54.3008 83.6551C54.3008 84.8428 53.338 85.8056 52.1503 85.8056ZM-0.000148619 83.7523C-0.000148671 84.94 0.96265 85.9028 2.15032 85.9028C3.33799 85.9028 4.30078 84.94 4.30078 83.7523C4.30078 82.5647 3.33799 81.6019 2.15032 81.6019C0.962651 81.6019 -0.000148568 82.5647 -0.000148619 83.7523Z" fill="#134B99"/>
</svg>
