<svg width="86" height="88" viewBox="0 0 86 88" fill="none" xmlns="http://www.w3.org/2000/svg">
<path fill-rule="evenodd" clip-rule="evenodd" d="M4.30093 2.15046C4.30093 3.33813 3.33813 4.30093 2.15046 4.30093C0.962795 4.30093 0 3.33813 0 2.15046C0 0.962795 0.962795 0 2.15046 0C3.33813 0 4.30093 0.962795 4.30093 2.15046ZM4.30093 18.4512C4.30093 19.6389 3.33813 20.6017 2.15046 20.6017C0.962795 20.6017 0 19.6389 0 18.4512C0 17.2636 0.962795 16.3008 2.15046 16.3008C3.33813 16.3008 4.30093 17.2636 4.30093 18.4512ZM2.15046 37.3009C3.33813 37.3009 4.30093 36.3381 4.30093 35.1505C4.30093 33.9628 3.33813 33 2.15046 33C0.962795 33 0 33.9628 0 35.1505C0 36.3381 0.962795 37.3009 2.15046 37.3009ZM20.6018 2.15046C20.6018 3.33813 19.639 4.30093 18.4514 4.30093C17.2637 4.30093 16.3009 3.33813 16.3009 2.15046C16.3009 0.962795 17.2637 0 18.4514 0C19.639 0 20.6018 0.962795 20.6018 2.15046ZM18.4514 20.6017C19.639 20.6017 20.6018 19.6389 20.6018 18.4512C20.6018 17.2636 19.639 16.3008 18.4514 16.3008C17.2637 16.3008 16.3009 17.2636 16.3009 18.4512C16.3009 19.6389 17.2637 20.6017 18.4514 20.6017ZM20.6018 35.1505C20.6018 36.3381 19.639 37.3009 18.4514 37.3009C17.2637 37.3009 16.3009 36.3381 16.3009 35.1505C16.3009 33.9628 17.2637 33 18.4514 33C19.639 33 20.6018 33.9628 20.6018 35.1505ZM34.7523 4.30093C35.9399 4.30093 36.9027 3.33813 36.9027 2.15046C36.9027 0.962795 35.9399 0 34.7523 0C33.5646 0 32.6018 0.962795 32.6018 2.15046C32.6018 3.33813 33.5646 4.30093 34.7523 4.30093ZM36.9027 18.4512C36.9027 19.6389 35.9399 20.6017 34.7523 20.6017C33.5646 20.6017 32.6018 19.6389 32.6018 18.4512C32.6018 17.2636 33.5646 16.3008 34.7523 16.3008C35.9399 16.3008 36.9027 17.2636 36.9027 18.4512ZM34.7523 37.3009C35.9399 37.3009 36.9027 36.3381 36.9027 35.1505C36.9027 33.9628 35.9399 33 34.7523 33C33.5646 33 32.6018 33.9628 32.6018 35.1505C32.6018 36.3381 33.5646 37.3009 34.7523 37.3009ZM53.2037 2.15046C53.2037 3.33813 52.2409 4.30093 51.0532 4.30093C49.8656 4.30093 48.9028 3.33813 48.9028 2.15046C48.9028 0.962795 49.8656 0 51.0532 0C52.2409 0 53.2037 0.962795 53.2037 2.15046ZM51.1505 54.3009C52.3381 54.3009 53.3009 53.3381 53.3009 52.1505C53.3009 50.9628 52.3381 50 51.1505 50C49.9628 50 49 50.9628 49 52.1505C49 53.3381 49.9628 54.3009 51.1505 54.3009ZM53.2037 18.4512C53.2037 19.6389 52.2409 20.6017 51.0532 20.6017C49.8656 20.6017 48.9028 19.6389 48.9028 18.4512C48.9028 17.2636 49.8656 16.3008 51.0532 16.3008C52.2409 16.3008 53.2037 17.2636 53.2037 18.4512ZM51.1505 70.6017C52.3381 70.6017 53.3009 69.6389 53.3009 68.4512C53.3009 67.2636 52.3381 66.3008 51.1505 66.3008C49.9628 66.3008 49 67.2636 49 68.4512C49 69.6389 49.9628 70.6017 51.1505 70.6017ZM53.2037 35.1505C53.2037 36.3381 52.2409 37.3009 51.0532 37.3009C49.8656 37.3009 48.9028 36.3381 48.9028 35.1505C48.9028 33.9628 49.8656 33 51.0532 33C52.2409 33 53.2037 33.9628 53.2037 35.1505ZM51.1505 87.3009C52.3381 87.3009 53.3009 86.3381 53.3009 85.1505C53.3009 83.9628 52.3381 83 51.1505 83C49.9628 83 49 83.9628 49 85.1505C49 86.3381 49.9628 87.3009 51.1505 87.3009ZM69.5047 2.15046C69.5047 3.33813 68.5419 4.30093 67.3542 4.30093C66.1665 4.30093 65.2037 3.33813 65.2037 2.15046C65.2037 0.962795 66.1665 0 67.3542 0C68.5419 0 69.5047 0.962795 69.5047 2.15046ZM67.4514 54.3009C68.6391 54.3009 69.6019 53.3381 69.6019 52.1505C69.6019 50.9628 68.6391 50 67.4514 50C66.2638 50 65.301 50.9628 65.301 52.1505C65.301 53.3381 66.2638 54.3009 67.4514 54.3009ZM69.5047 18.4512C69.5047 19.6389 68.5419 20.6017 67.3542 20.6017C66.1665 20.6017 65.2037 19.6389 65.2037 18.4512C65.2037 17.2636 66.1665 16.3008 67.3542 16.3008C68.5419 16.3008 69.5047 17.2636 69.5047 18.4512ZM67.4514 70.6017C68.6391 70.6017 69.6019 69.6389 69.6019 68.4512C69.6019 67.2636 68.6391 66.3008 67.4514 66.3008C66.2638 66.3008 65.301 67.2636 65.301 68.4512C65.301 69.6389 66.2638 70.6017 67.4514 70.6017ZM69.5047 35.1505C69.5047 36.3381 68.5419 37.3009 67.3542 37.3009C66.1665 37.3009 65.2037 36.3381 65.2037 35.1505C65.2037 33.9628 66.1665 33 67.3542 33C68.5419 33 69.5047 33.9628 69.5047 35.1505ZM67.4514 87.3009C68.6391 87.3009 69.6019 86.3381 69.6019 85.1505C69.6019 83.9628 68.6391 83 67.4514 83C66.2638 83 65.301 83.9628 65.301 85.1505C65.301 86.3381 66.2638 87.3009 67.4514 87.3009ZM85.8056 2.15046C85.8056 3.33813 84.8428 4.30093 83.6551 4.30093C82.4674 4.30093 81.5046 3.33813 81.5046 2.15046C81.5046 0.962795 82.4674 0 83.6551 0C84.8428 0 85.8056 0.962795 85.8056 2.15046ZM83.7523 54.3009C84.94 54.3009 85.9028 53.3381 85.9028 52.1505C85.9028 50.9628 84.94 50 83.7523 50C82.5647 50 81.6019 50.9628 81.6019 52.1505C81.6019 53.3381 82.5647 54.3009 83.7523 54.3009ZM85.8056 18.4512C85.8056 19.6389 84.8428 20.6017 83.6551 20.6017C82.4674 20.6017 81.5046 19.6389 81.5046 18.4512C81.5046 17.2636 82.4674 16.3008 83.6551 16.3008C84.8428 16.3008 85.8056 17.2636 85.8056 18.4512ZM83.7523 70.6017C84.94 70.6017 85.9028 69.6389 85.9028 68.4512C85.9028 67.2636 84.94 66.3008 83.7523 66.3008C82.5647 66.3008 81.6019 67.2636 81.6019 68.4512C81.6019 69.6389 82.5647 70.6017 83.7523 70.6017ZM85.8056 35.1505C85.8056 36.3381 84.8428 37.3009 83.6551 37.3009C82.4674 37.3009 81.5046 36.3381 81.5046 35.1505C81.5046 33.9628 82.4674 33 83.6551 33C84.8428 33 85.8056 33.9628 85.8056 35.1505ZM83.7523 87.3009C84.94 87.3009 85.9028 86.3381 85.9028 85.1505C85.9028 83.9628 84.94 83 83.7523 83C82.5647 83 81.6019 83.9628 81.6019 85.1505C81.6019 86.3381 82.5647 87.3009 83.7523 87.3009Z" fill="#134B99"/>
</svg>
