<svg width="209" height="214" viewBox="0 0 209 214" fill="none" xmlns="http://www.w3.org/2000/svg">
<path fill-rule="evenodd" clip-rule="evenodd" d="M96.0656 16.5814C99.8236 19.8799 105.544 19.5074 108.843 15.7494C112.141 11.9914 111.769 6.27096 108.011 2.97246C104.253 -0.326037 98.5321 0.0464644 95.2336 3.80447C91.9351 7.56247 92.3076 13.2829 96.0656 16.5814ZM65.1646 51.7871C68.9226 55.0856 74.643 54.7131 77.9415 50.9551C81.24 47.1971 80.8675 41.4767 77.1095 38.1782C73.3515 34.8797 67.6311 35.2522 64.3326 39.0102C61.0341 42.7682 61.4066 48.4886 65.1646 51.7871ZM47.0405 86.1609C43.742 89.9189 38.0216 90.2914 34.2636 86.9929C30.5056 83.6944 30.1331 77.9739 33.4316 74.2159C36.7301 70.4579 42.4505 70.0854 46.2085 73.3839C49.9665 76.6824 50.339 82.4029 47.0405 86.1609ZM3.36258 122.199C7.12059 125.497 12.841 125.125 16.1395 121.367C19.438 117.609 19.0655 111.888 15.3075 108.59C11.5495 105.291 5.82908 105.664 2.53058 109.422C-0.767927 113.18 -0.395421 118.9 3.36258 122.199ZM141.458 45.4244C138.159 49.1824 132.439 49.5549 128.681 46.2564C124.923 42.9579 124.551 37.2375 127.849 33.4795C131.148 29.7215 136.868 29.349 140.626 32.6475C144.384 35.946 144.756 41.6664 141.458 45.4244ZM97.7801 81.4621C101.538 84.7606 107.258 84.3881 110.557 80.6301C113.855 76.8721 113.483 71.1517 109.725 67.8532C105.967 64.5547 100.247 64.9272 96.948 68.6852C93.6495 72.4432 94.022 78.1636 97.7801 81.4621ZM79.656 115.836C76.3575 119.594 70.6371 119.966 66.879 116.668C63.121 113.369 62.7485 107.649 66.047 103.891C69.3455 100.133 75.066 99.7604 78.824 103.059C82.582 106.357 82.9545 112.078 79.656 115.836ZM35.978 151.874C39.736 155.172 45.4565 154.8 48.755 151.042C52.0535 147.284 51.681 141.563 47.923 138.265C44.165 134.966 38.4445 135.339 35.146 139.097C31.8475 142.855 32.22 148.575 35.978 151.874ZM174.073 75.0994C170.775 78.8574 165.055 79.2299 161.297 75.9314C157.539 72.6329 157.166 66.9125 160.465 63.1545C163.763 59.3964 169.483 59.0239 173.241 62.3224C176.999 65.621 177.372 71.3414 174.073 75.0994ZM130.396 111.137C134.154 114.436 139.874 114.063 143.172 110.305C146.471 106.547 146.098 100.827 142.34 97.5282C138.582 94.2297 132.862 94.6022 129.564 98.3602C126.265 102.118 126.638 107.839 130.396 111.137ZM112.271 145.511C108.973 149.269 103.253 149.641 99.4945 146.343C95.7365 143.044 95.364 137.324 98.6625 133.566C101.961 129.808 107.681 129.435 111.439 132.734C115.197 136.032 115.57 141.753 112.271 145.511ZM68.5935 181.549C72.3515 184.847 78.0719 184.475 81.3704 180.717C84.6689 176.959 84.2964 171.238 80.5384 167.94C76.7804 164.641 71.06 165.014 67.7615 168.772C64.463 172.53 64.8355 178.25 68.5935 181.549ZM206.689 104.774C203.39 108.532 197.67 108.905 193.912 105.606C190.154 102.308 189.781 96.5874 193.08 92.8294C196.378 89.0714 202.099 88.6989 205.857 91.9974C209.615 95.2959 209.987 101.016 206.689 104.774ZM163.011 140.812C166.769 144.111 172.489 143.738 175.788 139.98C179.086 136.222 178.714 130.502 174.956 127.203C171.198 123.905 165.477 124.277 162.179 128.035C158.88 131.793 159.253 137.514 163.011 140.812ZM144.887 175.186C141.588 178.944 135.868 179.316 132.11 176.018C128.352 172.719 127.979 166.999 131.278 163.241C134.576 159.483 140.297 159.11 144.055 162.409C147.813 165.707 148.185 171.428 144.887 175.186ZM101.209 211.224C104.967 214.522 110.687 214.15 113.986 210.392C117.284 206.634 116.912 200.913 113.154 197.615C109.396 194.316 103.675 194.689 100.377 198.447C97.0784 202.205 97.4509 207.925 101.209 211.224Z" fill="white" fill-opacity="0.29"/>
</svg>
