<svg width="138" height="214" viewBox="0 0 138 214" fill="none" xmlns="http://www.w3.org/2000/svg">
<path fill-rule="evenodd" clip-rule="evenodd" d="M20.924 16.7715C24.811 19.9169 30.512 19.3157 33.6574 15.4286C36.8028 11.5416 36.2015 5.84065 32.3145 2.69525C28.4274 -0.450149 22.7265 0.151077 19.5811 4.03813C16.4357 7.92518 17.0369 13.6261 20.924 16.7715ZM-8.54274 53.1862C-4.65569 56.3316 1.04523 55.7303 4.19064 51.8433C7.33604 47.9562 6.73481 42.2553 2.84776 39.1099C-1.03929 35.9645 -6.74022 36.5657 -9.88562 40.4528C-13.031 44.3398 -12.4298 50.0408 -8.54274 53.1862ZM-25.2761 88.2579C-28.4215 92.145 -34.1224 92.7462 -38.0095 89.6008C-41.8965 86.4554 -42.4978 80.7545 -39.3523 76.8674C-36.207 72.9804 -30.506 72.3792 -26.619 75.5246C-22.7319 78.67 -22.1307 84.3709 -25.2761 88.2579ZM-67.4762 126.015C-63.5892 129.161 -57.8882 128.56 -54.7428 124.673C-51.5974 120.786 -52.1987 115.085 -56.0857 111.939C-59.9728 108.794 -65.6737 109.395 -68.8191 113.282C-71.9645 117.169 -71.3633 122.87 -67.4762 126.015ZM67.4347 43.774C64.2893 47.6611 58.5884 48.2623 54.7014 45.1169C50.8143 41.9715 50.2131 36.2706 53.3585 32.3835C56.5039 28.4965 62.2048 27.8953 66.0919 31.0407C69.9789 34.1861 70.5801 39.887 67.4347 43.774ZM25.2346 81.5316C29.1217 84.677 34.8226 84.0757 37.968 80.1887C41.1134 76.3016 40.5122 70.6007 36.6251 67.4553C32.7381 64.3099 27.0372 64.9111 23.8918 68.7982C20.7464 72.6852 21.3476 78.3862 25.2346 81.5316ZM8.50128 116.603C5.35588 120.49 -0.345047 121.092 -4.2321 117.946C-8.11915 114.801 -8.72037 109.1 -5.57497 105.213C-2.42957 101.326 3.27136 100.725 7.15841 103.87C11.0455 107.015 11.6467 112.716 8.50128 116.603ZM-33.6988 154.361C-29.8118 157.506 -24.1109 156.905 -20.9655 153.018C-17.8201 149.131 -18.4213 143.43 -22.3083 140.285C-26.1954 137.139 -31.8963 137.74 -35.0417 141.628C-38.1871 145.515 -37.5859 151.215 -33.6988 154.361ZM101.212 72.1194C98.0667 76.0065 92.3658 76.6077 88.4787 73.4623C84.5917 70.3169 83.9905 64.616 87.1359 60.7289C90.2813 56.8419 95.9822 56.2407 99.8692 59.3861C103.756 62.5315 104.358 68.2324 101.212 72.1194ZM59.012 109.877C62.8991 113.022 68.6 112.421 71.7454 108.534C74.8908 104.647 74.2896 98.9461 70.4025 95.8007C66.5155 92.6553 60.8145 93.2565 57.6691 97.1436C54.5237 101.031 55.125 106.732 59.012 109.877ZM42.2787 144.949C39.1333 148.836 33.4323 149.437 29.5453 146.292C25.6582 143.146 25.057 137.445 28.2024 133.558C31.3478 129.671 37.0487 129.07 40.9358 132.215C44.8228 135.361 45.4241 141.062 42.2787 144.949ZM0.0785489 182.706C3.9656 185.852 9.66653 185.25 12.8119 181.363C15.9573 177.476 15.3561 171.775 11.469 168.63C7.582 165.485 1.88108 166.086 -1.26433 169.973C-4.40973 173.86 -3.8085 179.561 0.0785489 182.706ZM134.989 100.465C131.844 104.352 126.143 104.953 122.256 101.808C118.369 98.6623 117.768 92.9614 120.913 89.0743C124.059 85.1873 129.76 84.5861 133.647 87.7315C137.534 90.8769 138.135 96.5778 134.989 100.465ZM92.7894 138.222C96.6764 141.368 102.377 140.767 105.523 136.879C108.668 132.992 108.067 127.292 104.18 124.146C100.293 121.001 94.5919 121.602 91.4465 125.489C88.3011 129.376 88.9023 135.077 92.7894 138.222ZM76.056 173.294C72.9106 177.181 67.2097 177.782 63.3226 174.637C59.4356 171.492 58.8344 165.791 61.9798 161.904C65.1252 158.017 70.8261 157.415 74.7132 160.561C78.6002 163.706 79.2014 169.407 76.056 173.294ZM33.8559 211.052C37.743 214.197 43.4439 213.596 46.5893 209.709C49.7347 205.822 49.1335 200.121 45.2464 196.975C41.3594 193.83 35.6584 194.431 32.513 198.318C29.3676 202.205 29.9689 207.906 33.8559 211.052Z" fill="white" fill-opacity="0.29"/>
</svg>
